HIERARCHY
ROOT SpineBase
{
  OFFSET 0.000000 0.000000 0.000000
  CHANNELS 6 Xposition Yposition Zposition Zrotation Xrotation Yrotation
  JOINT SpineMid
  {
    OFFSET 0.000000 25.614999 0.000000
    CHANNELS 3 Zrotation Xrotation Yrotation
    JOINT SpineShoulder
    {
      OFFSET -0.099809 19.291043 -0.617632
      CHANNELS 3 Zrotation Xrotation Yrotation
      JOINT Neck
      {
        OFFSET -0.019177 6.472726 -0.498327
        CHANNELS 3 Zrotation Xrotation Yrotation
        JOINT Head
        {
          OFFSET 0.977215 14.238450 0.340687
          CHANNELS 3 Zrotation Xrotation Yrotation
          End Site
          {
            OFFSET 0 0 0
          }
        }
      }
      JOINT ShoulderLeft
      {
        OFFSET -8.245827 -2.024123 -10.730869
        CHANNELS 3 Zrotation Xrotation Yrotation
        JOINT ElbowLeft
        {
          OFFSET 1.099561 -20.400375 -7.011434
          CHANNELS 3 Zrotation Xrotation Yrotation
          JOINT WristLeft
          {
            OFFSET 14.960081 -11.135064 -8.969355
            CHANNELS 3 Zrotation Xrotation Yrotation
            JOINT HandLeft
            {
              OFFSET 0.951794 -1.872462 -3.114044
              CHANNELS 3 Zrotation Xrotation Yrotation
              JOINT HandTipLeft
              {
                OFFSET 2.303958 -1.792491 -4.825956
                CHANNELS 3 Zrotation Xrotation Yrotation
                End Site
                {
                  OFFSET 0 0 0
                }
              }
              JOINT ThumbLeft
              {
                OFFSET 2.742544 3.858096 -2.936908
                CHANNELS 3 Zrotation Xrotation Yrotation
                End Site
                {
                  OFFSET 0 0 0
                }
              }
            }
          }
        }
      }
      JOINT ShoulderRight
      {
        OFFSET 15.011769 -2.317345 9.883617
        CHANNELS 3 Zrotation Xrotation Yrotation
        JOINT ElbowRight
        {
          OFFSET 10.195983 -16.085394 4.642732
          CHANNELS 3 Zrotation Xrotation Yrotation
          JOINT WristRight
          {
            OFFSET 12.710866 -16.599263 -19.540667
            CHANNELS 3 Zrotation Xrotation Yrotation
            JOINT HandRight
            {
              OFFSET 3.686085 -4.565028 -5.526174
              CHANNELS 3 Zrotation Xrotation Yrotation
              JOINT HandTipRight
              {
                OFFSET 3.984175 -4.199518 -3.288554
                CHANNELS 3 Zrotation Xrotation Yrotation
                End Site
                {
                  OFFSET 0 0 0
                }
              }
              JOINT ThumbRight
              {
                OFFSET -2.926094 -1.808087 -1.387353
                CHANNELS 3 Zrotation Xrotation Yrotation
                End Site
                {
                  OFFSET 0 0 0
                }
              }
            }
          }
        }
      }
    }
  }
  JOINT HipLeft
  {
    OFFSET -5.089267 1.997384 -7.108834
    CHANNELS 3 Zrotation Xrotation Yrotation
    JOINT KneeLeft
    {
      OFFSET 22.847129 5.141221 -28.062138
      CHANNELS 3 Zrotation Xrotation Yrotation
      JOINT AnkleLeft
      {
        OFFSET 11.132126 -32.890538 -0.910754
        CHANNELS 3 Zrotation Xrotation Yrotation
        JOINT FootLeft
        {
          OFFSET 7.563662 -1.457662 -10.425961
          CHANNELS 3 Zrotation Xrotation Yrotation
          End Site
          {
            OFFSET 0 0 0
          }
        }
      }
    }
  }
  JOINT HipRight
  {
    OFFSET 5.847359 0.951930 0.899430
    CHANNELS 3 Zrotation Xrotation Yrotation
    JOINT KneeRight
    {
      OFFSET 34.892503 7.035891 -6.312421
      CHANNELS 3 Zrotation Xrotation Yrotation
      JOINT AnkleRight
      {
        OFFSET 5.804045 -31.459229 -13.016132
        CHANNELS 3 Zrotation Xrotation Yrotation
        JOINT FootRight
        {
          OFFSET 7.408809 -1.537074 -10.477899
          CHANNELS 3 Zrotation Xrotation Yrotation
          End Site
          {
            OFFSET 0 0 0
          }
        }
      }
    }
  }
}
MOTION
Frames: 9
Frame Time: 0.033333
-45.087713 29.287476 363.780814 2.208167 -2.508397 -31.742699 -0.074553 -0.161598 31.848464 -0.542785 -0.035620 0.069105 -10.879608 -15.063067 0.349253 0.000000 0.000000 0.000000 -5.834683 2.893162 1.635385 40.983212 6.335454 -16.168903 2.709809 -11.884866 -37.617944 -32.207464 23.957814 29.369506 0.000000 0.000000 0.000000 0.000000 0.000000 0.000000 5.334119 44.439343 28.186627 -50.607424 46.453417 60.676366 -76.874407 18.041081 -10.583273 31.741544 7.907365 16.963617 0.000000 0.000000 0.000000 0.000000 0.000000 0.000000 -2.225972 0.600576 38.807466 2.773852 -0.422350 -7.410253 -6.116936 -2.419677 3.759705 0.000000 0.000000 0.000000 -3.037271 0.254319 34.983151 -2.333335 0.033594 -2.226512 2.135183 0.681513 1.841123 0.000000 0.000000 0.000000
-45.079218 29.330171 363.818929 2.374373 -2.433991 -31.900572 -0.082107 -0.256135 32.014672 -0.604509 -0.117678 0.071575 -13.178671 -15.235974 0.163016 0.000000 0.000000 0.000000 -7.088476 3.678491 2.183845 42.067099 4.405638 -16.786411 2.777079 -12.030640 -37.526368 -33.523512 24.339815 30.506254 0.000000 0.000000 0.000000 0.000000 0.000000 0.000000 5.629849 41.481895 25.832195 -58.577082 45.905247 71.977685 -77.470525 20.239870 -22.525852 37.401857 10.965094 17.794523 0.000000 0.000000 0.000000 0.000000 0.000000 0.000000 -2.343024 0.280330 38.945722 2.793738 -0.056549 -7.320069 -5.143835 -1.416982 3.446022 0.000000 0.000000 0.000000 -3.228467 -0.019186 35.243073 -2.244158 0.101843 -2.302456 2.206254 0.687553 1.804195 0.000000 0.000000 0.000000
-45.026205 29.393930 363.912046 2.591396 -2.446671 -31.856707 -0.076119 -0.273945 31.983210 -0.568409 -0.168758 0.084204 -15.658529 -15.552790 -0.043671 0.000000 0.000000 0.000000 -8.585784 4.035844 2.711602 43.169691 3.092341 -17.414960 2.837966 -12.152027 -37.442710 -34.463920 24.680809 31.325974 0.000000 0.000000 0.000000 0.000000 0.000000 0.000000 4.573820 38.811323 24.019511 -63.992328 43.565658 80.678704 -75.780365 21.300150 -32.865647 45.596779 17.584220 27.951216 0.000000 0.000000 0.000000 0.000000 0.000000 0.000000 -2.536639 -0.037541 38.983661 2.818617 0.409138 -7.311625 -3.867639 -0.077952 3.113855 0.000000 0.000000 0.000000 -3.479967 -0.215491 35.332200 -2.314857 0.182140 -2.350285 2.395634 0.691455 1.800881 0.000000 0.000000 0.000000
-44.924445 29.430215 364.042426 2.844930 -2.485151 -31.577947 -0.107254 -0.233810 31.718171 -0.522108 -0.187346 0.098512 -17.342636 -15.865650 -0.201612 0.000000 0.000000 0.000000 -9.507702 3.618832 2.905471 43.726170 3.439528 -17.629349 2.847479 -12.160268 -37.429783 -34.211553 24.748162 31.127223 0.000000 0.000000 0.000000 0.000000 0.000000 0.000000 4.105656 36.504305 22.389376 -68.770626 40.952170 87.821548 -73.098790 21.882432 -40.824459 44.901307 19.348554 25.722071 0.000000 0.000000 0.000000 0.000000 0.000000 0.000000 -2.756765 -0.285402 38.893701 2.843625 0.705524 -7.447300 -2.433768 1.710830 2.925567 0.000000 0.000000 0.000000 -3.790982 -0.418702 35.232464 -2.436335 0.257794 -2.414470 2.650162 0.741710 1.965891 0.000000 0.000000 0.000000
-44.799816 29.464905 364.186694 3.021349 -2.608395 -31.208692 -0.255278 -0.258007 31.358652 -0.514988 -0.202872 0.101371 -17.467099 -15.697587 -0.181053 0.000000 0.000000 0.000000 -10.338472 3.134646 3.167988 44.252393 3.875033 -17.853415 2.888759 -12.216791 -37.373030 -33.846808 25.084152 30.827662 0.000000 0.000000 0.000000 0.000000 0.000000 0.000000 4.010178 32.094387 19.271484 -71.773024 39.022960 94.794635 -67.577639 17.959365 -43.309481 46.596184 18.206967 22.031611 0.000000 0.000000 0.000000 0.000000 0.000000 0.000000 -2.929076 -0.288419 38.844488 2.821769 0.733301 -7.763971 -3.510084 0.222581 3.384412 0.000000 0.000000 0.000000 -4.133220 -0.559672 35.086786 -2.502650 0.369494 -2.505911 2.906129 0.720693 1.983334 0.000000 0.000000 0.000000
-44.747184 29.507756 364.263586 2.969383 -2.706386 -31.006936 -0.385666 -0.348088 31.154649 -0.509745 -0.202935 0.092580 -16.089992 -15.028202 -0.004696 0.000000 0.000000 0.000000 -10.405848 2.729432 3.245102 44.204716 4.571181 -17.780862 2.930327 -12.267788 -37.315591 -33.249605 25.434212 30.334927 0.000000 0.000000 0.000000 0.000000 0.000000 0.000000 3.923058 32.096187 19.239193 -71.577367 38.442002 94.716184 -66.581764 17.108174 -44.553732 47.113195 19.830483 24.213500 0.000000 0.000000 0.000000 0.000000 0.000000 0.000000 -2.924875 -0.263232 38.768797 2.863161 0.678329 -7.930871 -3.547352 0.295003 3.378044 0.000000 0.000000 0.000000 -4.271033 -0.595920 35.027796 -2.398242 0.450624 -2.597043 2.971587 0.649020 1.884659 0.000000 0.000000 0.000000
-44.737011 29.593665 364.317584 2.998459 -2.785039 -31.010927 -0.274863 -0.345171 31.164511 -0.344372 -0.199917 0.108016 -17.234391 -14.618570 -0.034460 0.000000 0.000000 0.000000 -10.363129 2.298406 3.054436 43.638882 5.790225 -17.403778 2.942641 -12.261885 -37.297546 -32.274865 25.597021 29.512396 0.000000 0.000000 0.000000 0.000000 0.000000 0.000000 3.135948 31.927029 19.073829 -69.350686 40.113180 93.170075 -66.001554 15.434674 -39.432636 44.001495 15.101607 18.856157 0.000000 0.000000 0.000000 0.000000 0.000000 0.000000 -3.003592 -0.392471 38.778560 2.934734 0.660744 -7.985986 -3.508327 0.427621 3.269546 0.000000 0.000000 0.000000 -4.569071 -0.810236 35.196829 -2.076034 0.583680 -2.736302 3.005464 0.584932 1.699836 0.000000 0.000000 0.000000
-44.779735 29.686432 364.318430 2.930581 -2.832380 -31.152817 -0.290508 -0.449338 31.304446 -0.469137 -0.189811 0.095729 -16.696457 -13.968675 0.065122 0.000000 0.000000 0.000000 -11.199627 2.238239 3.501774 44.040577 5.354732 -17.619359 3.071281 -12.468070 -37.121194 -32.367100 26.484903 29.644045 0.000000 0.000000 0.000000 0.000000 0.000000 0.000000 3.235341 33.290956 19.967060 -68.508774 40.367233 91.381276 -68.261063 16.949877 -40.536331 41.423878 14.018685 14.039542 0.000000 0.000000 0.000000 0.000000 0.000000 0.000000 -3.006549 -0.531892 38.775336 3.051207 0.640785 -7.899526 -3.502596 0.535610 3.123165 0.000000 0.000000 0.000000 -4.759813 -0.977127 35.393934 -1.690302 0.695670 -2.806143 2.929633 0.470615 1.506019 0.000000 0.000000 0.000000
-44.820705 29.783696 364.324756 2.805823 -2.891436 -31.394454 -0.344985 -0.576081 31.540272 -0.585519 -0.189330 0.079598 -15.488966 -13.194548 0.212207 0.000000 0.000000 0.000000 -11.173861 2.938905 3.745448 43.488308 3.967599 -17.641780 3.243608 -12.758636 -36.887247 -33.208969 27.611075 30.435256 0.000000 0.000000 0.000000 0.000000 0.000000 0.000000 2.600847 35.356192 21.515146 -66.331278 40.425585 88.131144 -72.663691 19.610539 -44.360761 47.626422 20.774813 23.018453 0.000000 0.000000 0.000000 0.000000 0.000000 0.000000 -2.957605 -0.617737 38.914832 2.912062 0.805876 -7.794020 -2.252181 1.438955 0.645762 0.000000 0.000000 0.000000 -4.797733 -1.001402 35.659647 -1.373289 0.748202 -2.887017 2.779982 0.360900 1.153089 0.000000 0.000000 0.000000
